<?xml version="1.0" encoding="utf-8" standalone="yes"?>
<!DOCTYPE svg PUBLIC "-//W3C//DTD SVG 1.1//EN" "http://www.w3.org/Graphics/SVG/1.1/DTD/svg11.dtd">
<svg width="62" height="62" viewBox="0 0 62 62" style="fill:none;stroke:none;fill-rule:evenodd;clip-rule:evenodd;stroke-linecap:round;stroke-linejoin:round;stroke-miterlimit:1.5;" version="1.1" xmlns="http://www.w3.org/2000/svg" xmlns:xlink="http://www.w3.org/1999/xlink"><g id="items" style="isolation: isolate"><g id="blend" style="mix-blend-mode: normal"><g id="g-root-ic_decr_m97r7ixmpcln-fill" data-item-order="0" transform="translate(3, 3)"></g><g id="g-root-ic_decr_m97r7ixmpcln-stroke" data-item-order="0" transform="translate(3, 3)"><g id="ic_decr_m97r7ixmpcln-stroke" fill="none" stroke-linecap="round" stroke-linejoin="round" stroke-miterlimit="4" stroke="#2bb1be" stroke-width="2"><g><path d="M 12.25 10.75L 15.25 10.75C 15.25 10.75 16.75 10.75 16.75 12.25L 16.75 28.75C 16.75 28.75 16.75 30.25 15.25 30.25L 12.25 30.25C 12.25 30.25 10.75 30.25 10.75 28.75L 10.75 12.25C 10.75 12.25 10.75 10.75 12.25 10.75M 40.75 10.75L 43.75 10.75C 43.75 10.75 45.25 10.75 45.25 12.25L 45.25 28.75C 45.25 28.75 45.25 30.25 43.75 30.25L 40.75 30.25C 40.75 30.25 39.25 30.25 39.25 28.75L 39.25 12.25C 39.25 12.25 39.25 10.75 40.75 10.75M 19.75 26.5L 19.75 27.25C 19.748873 28.097124 20.107018 28.904995 20.7355 29.473C 21.887354 30.518326 22.417694 32.084389 22.138 33.614502L 19.75 45.25M 16.75 22.75L 21.25 22.75C 22.078428 22.75 22.75 22.078428 22.75 21.25L 22.75 16.75C 22.75 15.921573 23.421572 15.25 24.25 15.25L 33.25 15.25C 34.078426 15.25 34.75 15.921573 34.75 16.75L 34.75 25.373499C 34.749729 26.572897 34.273338 27.723135 33.425499 28.571499C 32.375473 29.620951 31.907364 31.118906 32.173 32.579502L 34.75 45.25M 16.75 18.25L 22.753 18.25M 34.753002 18.25L 39.25 18.25M 34.75 22.75L 39.25 22.75M 25.75 15.253L 25.75 20.503M 28.75 15.253L 28.75 20.503M 31.75 15.253L 31.75 20.503"></path></g></g></g></g></g></svg>