<?xml version="1.0" encoding="utf-8" standalone="yes"?>
<!DOCTYPE svg PUBLIC "-//W3C//DTD SVG 1.1//EN" "http://www.w3.org/Graphics/SVG/1.1/DTD/svg11.dtd">
<svg width="62" height="62" viewBox="0 0 62 62" style="fill:none;stroke:none;fill-rule:evenodd;clip-rule:evenodd;stroke-linecap:round;stroke-linejoin:round;stroke-miterlimit:1.5;" version="1.1" xmlns="http://www.w3.org/2000/svg" xmlns:xlink="http://www.w3.org/1999/xlink"><g id="items" style="isolation: isolate"><g id="blend" style="mix-blend-mode: normal"><g id="g-root-ic_decr_m97r7ixmpcln-fill" data-item-order="0" transform="translate(3, 3)"></g><g id="g-root-ic_decr_m97r7ixmpcln-stroke" data-item-order="0" transform="translate(3, 3)"><g id="ic_decr_m97r7ixmpcln-stroke" fill="none" stroke-linecap="round" stroke-linejoin="round" stroke-miterlimit="4" stroke="#b86b89" stroke-width="2"><g><path d="M 40.561001 20.250999L 38.261497 14.5105L 23.247999 14.5105M 26.0935 20.5105L 22.9585 13.942C 22.706558 13.37542 22.144569 13.010362 21.5245 13.0105L 12.316 13.0105C 11.450879 13.011328 10.75 13.712879 10.75 14.578L 10.75 41.428001C 10.75 42.293705 11.451794 42.995499 12.3175 42.995499L 43.679497 42.995499C 44.096786 42.9963 44.497169 42.830681 44.791954 42.535332C 45.086742 42.239983 45.251595 41.839283 45.249996 41.421997L 45.25 22.077999C 45.25 21.211706 44.547291 20.50967 43.681 20.5105ZM 10.7485 37.010498L 45.248501 37.010498"></path></g></g></g></g></g></svg>