<?xml version="1.0" encoding="utf-8" standalone="yes"?>
<!DOCTYPE svg PUBLIC "-//W3C//DTD SVG 1.1//EN" "http://www.w3.org/Graphics/SVG/1.1/DTD/svg11.dtd">
<svg width="62" height="62" viewBox="0 0 62 62" style="fill:none;stroke:none;fill-rule:evenodd;clip-rule:evenodd;stroke-linecap:round;stroke-linejoin:round;stroke-miterlimit:1.5;" version="1.1" xmlns="http://www.w3.org/2000/svg" xmlns:xlink="http://www.w3.org/1999/xlink"><g id="items" style="isolation: isolate"><g id="blend" style="mix-blend-mode: normal"><g id="g-root-ic_decr_m97r7ixmpcln-fill" data-item-order="0" transform="translate(3, 3)"></g><g id="g-root-ic_decr_m97r7ixmpcln-stroke" data-item-order="0" transform="translate(3, 3)"><g id="ic_decr_m97r7ixmpcln-stroke" fill="none" stroke-linecap="round" stroke-linejoin="round" stroke-miterlimit="4" stroke="#2bb1be" stroke-width="2"><g><path d="M 10.6615 39.25L 45.161499 39.25M 16.661499 39.25L 16.661499 32.5C 16.661499 32.085785 16.325714 31.75 15.9115 31.75L 12.9115 31.75C 12.497287 31.75 12.1615 32.085785 12.1615 32.5L 12.1615 39.25M 25.661499 39.25L 25.661499 25C 25.661499 24.585787 25.325714 24.25 24.911499 24.25L 21.911499 24.25C 21.497286 24.25 21.161499 24.585787 21.161499 25L 21.161499 39.25M 34.661499 39.25L 34.661499 28C 34.661499 27.585787 34.325714 27.25 33.911499 27.25L 30.911499 27.25C 30.497288 27.25 30.161499 27.585787 30.161499 28L 30.161499 39.25M 43.661499 39.25L 43.661499 17.5C 43.661499 17.085787 43.325714 16.75 42.911499 16.75L 39.911499 16.75C 39.497288 16.75 39.161499 17.085787 39.161499 17.5L 39.161499 39.25"></path></g></g></g></g></g></svg>